<?xml version="1.0" encoding="UTF-8" standalone="no"?>
<!-- Created with Inkscape (http://www.inkscape.org/) -->

<svg
   xmlns:dc="http://purl.org/dc/elements/1.1/"
   xmlns:cc="http://creativecommons.org/ns#"
   xmlns:rdf="http://www.w3.org/1999/02/22-rdf-syntax-ns#"
   xmlns:svg="http://www.w3.org/2000/svg"
   xmlns="http://www.w3.org/2000/svg"
   xmlns:sodipodi="http://sodipodi.sourceforge.net/DTD/sodipodi-0.dtd"
   xmlns:inkscape="http://www.inkscape.org/namespaces/inkscape"
   width="744.09448819"
   height="1052.3622047"
   id="svg2"
   version="1.1"
   inkscape:version="0.48.0 r9654"
   sodipodi:docname="interpolate.eps">
  <defs
     id="defs4">
    <inkscape:path-effect
       effect="skeletal"
       id="path-effect3851"
       is_visible="true"
       pattern="m 6.4285714,23.571429 c 0,-2.76 2.24,-5 4.9999996,-5 2.76,0 5,2.24 5,5 0,2.76 -2.24,5 -5,5 -2.7599996,0 -4.9999996,-2.24 -4.9999996,-5 z"
       copytype="single_stretched"
       prop_scale="1"
       scale_y_rel="false"
       spacing="0"
       normal_offset="0"
       tang_offset="0"
       prop_units="false"
       vertical_pattern="false"
       fuse_tolerance="0" />
  </defs>
  <sodipodi:namedview
     id="base"
     pagecolor="#ffffff"
     bordercolor="#666666"
     borderopacity="1.0"
     inkscape:pageopacity="0.0"
     inkscape:pageshadow="2"
     inkscape:zoom="1.979899"
     inkscape:cx="280.80291"
     inkscape:cy="806.25767"
     inkscape:document-units="px"
     inkscape:current-layer="layer2"
     showgrid="true"
     inkscape:snap-grids="true"
     inkscape:snap-global="true"
     inkscape:window-width="1680"
     inkscape:window-height="973"
     inkscape:window-x="1280"
     inkscape:window-y="24"
     inkscape:window-maximized="1">
    <inkscape:grid
       type="xygrid"
       id="grid3883" />
  </sodipodi:namedview>
  <metadata
     id="metadata7">
    <rdf:RDF>
      <cc:Work
         rdf:about="">
        <dc:format>image/svg+xml</dc:format>
        <dc:type
           rdf:resource="http://purl.org/dc/dcmitype/StillImage" />
        <dc:title></dc:title>
      </cc:Work>
    </rdf:RDF>
  </metadata>
  <g
     inkscape:label="Layer 1"
     inkscape:groupmode="layer"
     id="layer1">
    <g
       id="g5314"
       transform="translate(-12.5,0)">
      <rect
         y="92.362183"
         x="150"
         height="20"
         width="120"
         id="rect3887"
         style="fill:none;stroke:#000000;stroke-width:1;stroke-miterlimit:4;stroke-opacity:1;stroke-dasharray:none;stroke-dashoffset:0" />
      <path
         inkscape:connector-curvature="0"
         id="path3891"
         d="m 170,92.362183 0,19.999997"
         style="fill:none;stroke:#000000;stroke-width:1;stroke-linecap:butt;stroke-linejoin:miter;stroke-miterlimit:4;stroke-opacity:1;stroke-dasharray:none;stroke-dashoffset:0" />
      <path
         inkscape:connector-curvature="0"
         id="path3891-6"
         d="m 190,92.362183 0,19.999997"
         style="fill:none;stroke:#000000;stroke-width:1;stroke-linecap:butt;stroke-linejoin:miter;stroke-miterlimit:4;stroke-opacity:1;stroke-dasharray:none;stroke-dashoffset:0" />
      <path
         inkscape:connector-curvature="0"
         id="path3891-3"
         d="m 210,92.362183 0,19.999997"
         style="fill:none;stroke:#000000;stroke-width:1;stroke-linecap:butt;stroke-linejoin:miter;stroke-miterlimit:4;stroke-opacity:1;stroke-dasharray:none" />
      <path
         inkscape:connector-curvature="0"
         id="path3891-0"
         d="m 230,92.362183 0,19.999997"
         style="fill:none;stroke:#000000;stroke-width:1;stroke-linecap:butt;stroke-linejoin:miter;stroke-miterlimit:4;stroke-opacity:1;stroke-dasharray:none;stroke-dashoffset:0" />
      <path
         inkscape:connector-curvature="0"
         id="path3891-1"
         d="m 250,92.362183 0,19.999997"
         style="fill:none;stroke:#000000;stroke-width:1;stroke-linecap:butt;stroke-linejoin:miter;stroke-miterlimit:4;stroke-opacity:1;stroke-dasharray:none;stroke-dashoffset:0" />
      <path
         inkscape:connector-curvature="0"
         id="path3891-8"
         d="m 325,92.362183 0,19.999997"
         style="fill:none;stroke:#000000;stroke-width:1;stroke-linecap:butt;stroke-linejoin:miter;stroke-miterlimit:4;stroke-opacity:1;stroke-dasharray:none;stroke-dashoffset:0" />
      <path
         inkscape:connector-curvature="0"
         id="path3891-66"
         d="m 345,92.362183 0,19.999997"
         style="fill:none;stroke:#000000;stroke-width:1;stroke-linecap:butt;stroke-linejoin:miter;stroke-miterlimit:4;stroke-opacity:1;stroke-dasharray:none;stroke-dashoffset:0" />
      <path
         inkscape:connector-curvature="0"
         id="path3855-4"
         d="m 150,91.409802 0,-9.047619 215.00001,0 0,10.000001"
         style="fill:none;stroke:#000000;stroke-width:0.30000001;stroke-linecap:butt;stroke-linejoin:miter;stroke-miterlimit:4;stroke-opacity:1;stroke-dasharray:none" />
      <rect
         y="92.362183"
         x="305"
         height="20"
         width="60"
         id="rect3887-1"
         style="fill:none;stroke:#000000;stroke-width:1;stroke-miterlimit:4;stroke-opacity:1;stroke-dasharray:none;stroke-dashoffset:0" />
      <path
         inkscape:connector-curvature="0"
         id="path3989"
         d="m 275,102.36218 5,0"
         style="fill:none;stroke:#000000;stroke-width:3;stroke-linecap:butt;stroke-linejoin:miter;stroke-miterlimit:4;stroke-opacity:1;stroke-dasharray:none" />
      <path
         inkscape:connector-curvature="0"
         id="path3989-1"
         d="m 285,102.36218 5,0"
         style="fill:none;stroke:#000000;stroke-width:3;stroke-linecap:butt;stroke-linejoin:miter;stroke-miterlimit:4;stroke-opacity:1;stroke-dasharray:none" />
      <path
         inkscape:connector-curvature="0"
         id="path3989-2"
         d="m 295,102.36218 5,0"
         style="fill:none;stroke:#000000;stroke-width:3;stroke-linecap:butt;stroke-linejoin:miter;stroke-miterlimit:4;stroke-opacity:1;stroke-dasharray:none" />
      <text
         sodipodi:linespacing="125%"
         id="text3861-0"
         y="77.362183"
         x="207.00002"
         style="font-size:20px;font-style:normal;font-weight:normal;line-height:125%;letter-spacing:0px;word-spacing:0px;fill:#000000;fill-opacity:1;stroke:none;font-family:Sans"
         xml:space="preserve"><tspan
           y="77.362183"
           x="207.00002"
           id="tspan3863-3"
           sodipodi:role="line">nb nodes</tspan></text>
      <path
         inkscape:connector-curvature="0"
         id="path3891-8-5"
         d="m 210,142.36218 0,20"
         style="fill:none;stroke:#000000;stroke-width:1;stroke-linecap:butt;stroke-linejoin:miter;stroke-miterlimit:4;stroke-opacity:1;stroke-dasharray:none;stroke-dashoffset:0" />
      <path
         inkscape:connector-curvature="0"
         id="path3891-66-0"
         d="m 230,142.36218 0,20"
         style="fill:none;stroke:#000000;stroke-width:1;stroke-linecap:butt;stroke-linejoin:miter;stroke-miterlimit:4;stroke-opacity:1;stroke-dasharray:none;stroke-dashoffset:0" />
      <rect
         y="142.36218"
         x="190"
         height="20"
         width="60"
         id="rect3887-1-0"
         style="fill:none;stroke:#000000;stroke-width:1;stroke-miterlimit:4;stroke-opacity:1;stroke-dasharray:none;stroke-dashoffset:0" />
      <path
         inkscape:connector-curvature="0"
         id="path4387"
         d="m 210,112.36218 -20,30"
         style="fill:none;stroke:#000000;stroke-width:0.30000001;stroke-linecap:butt;stroke-linejoin:miter;stroke-miterlimit:4;stroke-opacity:1;stroke-dasharray:none" />
      <path
         inkscape:connector-curvature="0"
         id="path4389"
         d="m 230,112.36218 20,30"
         style="fill:none;stroke:#000000;stroke-width:0.30000001;stroke-linecap:butt;stroke-linejoin:miter;stroke-miterlimit:4;stroke-opacity:1;stroke-dasharray:none" />
      <path
         inkscape:connector-curvature="0"
         id="path3855-4-2"
         d="m 190,164.60708 0,7.7551 60,0 0,-8.57143"
         style="fill:none;stroke:#000000;stroke-width:0.30000001;stroke-linecap:butt;stroke-linejoin:miter;stroke-miterlimit:4;stroke-opacity:1;stroke-dasharray:none" />
      <text
         sodipodi:linespacing="125%"
         id="text3861-0-4"
         y="190.36218"
         x="188"
         style="font-size:20px;font-style:normal;font-weight:normal;line-height:125%;letter-spacing:0px;word-spacing:0px;fill:#000000;fill-opacity:1;stroke:none;font-family:Sans"
         xml:space="preserve"><tspan
           y="190.36218"
           x="188"
           id="tspan3863-3-0"
           sodipodi:role="line">nb dof</tspan></text>
      <path
         inkscape:connector-curvature="0"
         id="path3891-6-5"
         d="m 217,92.362183 0,19.999997"
         style="fill:none;stroke:#000000;stroke-width:0.30000001;stroke-linecap:butt;stroke-linejoin:miter;stroke-miterlimit:4;stroke-opacity:1;stroke-dasharray:0.9, 0.3;stroke-dashoffset:0" />
      <path
         inkscape:connector-curvature="0"
         id="path3891-6-1"
         d="m 223.39285,92.362183 0,19.999997"
         style="fill:none;stroke:#000000;stroke-width:0.30000001;stroke-linecap:butt;stroke-linejoin:miter;stroke-miterlimit:4;stroke-opacity:1;stroke-dasharray:0.9, 0.3;stroke-dashoffset:0" />
    </g>
    <text
       xml:space="preserve"
       style="font-size:20px;font-style:normal;font-weight:normal;line-height:125%;letter-spacing:0px;word-spacing:0px;fill:#000000;fill-opacity:1;stroke:none;font-family:Sans"
       x="294"
       y="238.36218"
       id="text4470"
       sodipodi:linespacing="125%"><tspan
         sodipodi:role="line"
         id="tspan4472"
         x="294"
         y="238.36218">integrateOnQuadraturePoints</tspan></text>
    <path
       style="fill:none;stroke:#000000;stroke-width:1px;stroke-linecap:butt;stroke-linejoin:miter;stroke-opacity:1"
       d="m 235,200.90613 20,0 0,40 10,0 -20,30 -20,-30 10,0 z"
       id="path5181"
       inkscape:connector-curvature="0" />
  </g>
  <g
     inkscape:groupmode="layer"
     id="layer2"
     inkscape:label="Layer">
    <text
       xml:space="preserve"
       style="font-size:20px;font-style:normal;font-weight:normal;line-height:125%;letter-spacing:0px;word-spacing:0px;fill:#000000;fill-opacity:1;stroke:none;font-family:Sans"
       x="440"
       y="357.36218"
       id="text4766"
       sodipodi:linespacing="125%"><tspan
         sodipodi:role="line"
         id="tspan4768"
         x="440"
         y="357.36218">grouped by element</tspan></text>
    <g
       id="g5414"
       transform="translate(0,-1.3798475e-5)">
      <path
         inkscape:connector-curvature="0"
         id="path3855-4-4"
         d="m 59.99999,327.69562 0,-25.33344 370.00001,0 0,28.00012"
         style="fill:none;stroke:#000000;stroke-width:0.3000001;stroke-linecap:butt;stroke-linejoin:miter;stroke-miterlimit:4;stroke-opacity:1;stroke-dasharray:none" />
      <text
         sodipodi:linespacing="125%"
         id="text3861-0-7"
         y="296.36218"
         x="170"
         style="font-size:20px;font-style:normal;font-weight:normal;line-height:125%;letter-spacing:0px;word-spacing:0px;fill:#000000;fill-opacity:1;stroke:none;font-family:Sans"
         xml:space="preserve"><tspan
           y="296.36218"
           x="170"
           id="tspan3863-3-1"
           sodipodi:role="line">nb quad points</tspan></text>
      <path
         inkscape:connector-curvature="0"
         id="path3891-8-5-2"
         d="m 235,392.36219 0,20"
         style="fill:none;stroke:#000000;stroke-width:1;stroke-linecap:butt;stroke-linejoin:miter;stroke-miterlimit:4;stroke-opacity:1;stroke-dasharray:none;stroke-dashoffset:0" />
      <path
         inkscape:connector-curvature="0"
         id="path3891-66-0-2"
         d="m 255,392.36219 0,20"
         style="fill:none;stroke:#000000;stroke-width:1;stroke-linecap:butt;stroke-linejoin:miter;stroke-miterlimit:4;stroke-opacity:1;stroke-dasharray:none;stroke-dashoffset:0" />
      <rect
         y="392.36218"
         x="215"
         height="20"
         width="60"
         id="rect3887-1-0-2"
         style="fill:none;stroke:#000000;stroke-width:1;stroke-miterlimit:4;stroke-opacity:1;stroke-dasharray:none;stroke-dashoffset:0" />
      <path
         inkscape:connector-curvature="0"
         id="path4387-4"
         d="m 235,362.36219 -20,30"
         style="fill:none;stroke:#000000;stroke-width:0.30000001;stroke-linecap:butt;stroke-linejoin:miter;stroke-miterlimit:4;stroke-opacity:1;stroke-dasharray:none" />
      <path
         inkscape:connector-curvature="0"
         id="path4389-6"
         d="m 255,362.36219 20,30"
         style="fill:none;stroke:#000000;stroke-width:0.30000001;stroke-linecap:butt;stroke-linejoin:miter;stroke-miterlimit:4;stroke-opacity:1;stroke-dasharray:none" />
      <path
         inkscape:connector-curvature="0"
         id="path4639"
         d="m 60,352.36218 0,-10 10.00001,0 9.99999,0 0,10 0,10 -9.99999,0 -10.00001,0 0,-10 z"
         style="fill:#008080;stroke:#008080;stroke-width:0.99999994;stroke-miterlimit:4;stroke-opacity:1;stroke-dasharray:none;stroke-dashoffset:0" />
      <path
         inkscape:connector-curvature="0"
         id="path4675"
         d="m 120.00001,352.36218 0,-10 3.23809,0 3.2381,0 0,0.84906 c 0,0.62893 0.074,0.84906 0.2857,0.84906 0.21165,0 0.28572,-0.22013 0.28572,-0.84906 l 0,-0.84906 3.14286,0 3.14286,0 0,0.84906 c 0,0.62893 0.074,0.84906 0.28571,0.84906 0.21164,0 0.28571,-0.22013 0.28571,-0.84906 l 0,-0.84906 3.04762,0 3.04763,0 0,10 0,10 -3.04763,0 c -1.90476,0 -3.04762,-0.0708 -3.04762,-0.18869 0,-0.10376 -0.12856,-0.18867 -0.28571,-0.18867 -0.15714,0 -0.28571,0.0849 -0.28571,0.18867 0,0.11817 -1.1746,0.18869 -3.14286,0.18869 -1.96826,0 -3.14286,-0.0705 -3.14286,-0.18869 0,-0.10376 -0.12857,-0.18867 -0.28572,-0.18867 -0.15714,0 -0.2857,0.0849 -0.2857,0.18867 0,0.1184 -1.20636,0.18869 -3.2381,0.18869 l -3.23809,0 0,-10 z m 7.04761,8.30188 c 0,-0.8805 -0.0635,-1.13208 -0.28572,-1.13208 -0.22221,0 -0.2857,0.25158 -0.2857,1.13208 0,0.88051 0.0635,1.13208 0.2857,1.13208 0.22223,0 0.28572,-0.25157 0.28572,-1.13208 z m 6.85714,0 c 0,-0.8805 -0.0635,-1.13208 -0.28571,-1.13208 -0.22222,0 -0.28571,0.25158 -0.28571,1.13208 0,0.88051 0.0635,1.13208 0.28571,1.13208 0.22223,0 0.28571,-0.25157 0.28571,-1.13208 z m -6.85714,-1.88679 c 0,-0.37735 -0.0952,-0.56604 -0.28572,-0.56604 -0.19047,0 -0.2857,0.18869 -0.2857,0.56604 0,0.37736 0.0952,0.56604 0.2857,0.56604 0.19048,0 0.28572,-0.18868 0.28572,-0.56604 z m 6.85714,0 c 0,-0.37735 -0.0953,-0.56604 -0.28571,-0.56604 -0.19048,0 -0.28571,0.18869 -0.28571,0.56604 0,0.37736 0.0953,0.56604 0.28571,0.56604 0.19048,0 0.28571,-0.18868 0.28571,-0.56604 z m -6.85714,-1.88679 c 0,-0.85184 -0.0669,-1.13207 -0.27031,-1.13207 -0.20279,0 -0.27168,0.28278 -0.27578,1.13207 -0.004,0.86487 0.0596,1.13207 0.27032,1.13207 0.21008,0 0.27577,-0.2697 0.27577,-1.13207 z m 6.85714,0 c 0,-0.8805 -0.0635,-1.13207 -0.28571,-1.13207 -0.22222,0 -0.28571,0.25157 -0.28571,1.13207 0,0.88051 0.0635,1.13207 0.28571,1.13207 0.22223,0 0.28571,-0.25156 0.28571,-1.13207 z m -6.85714,-1.88679 c 0,-0.37736 -0.0952,-0.56603 -0.28572,-0.56603 -0.19047,0 -0.2857,0.18867 -0.2857,0.56603 0,0.37735 0.0952,0.56603 0.2857,0.56603 0.19048,0 0.28572,-0.18868 0.28572,-0.56603 z m 6.85714,0 c 0,-0.37736 -0.0953,-0.56603 -0.28571,-0.56603 -0.19048,0 -0.28571,0.18867 -0.28571,0.56603 0,0.37735 0.0953,0.56603 0.28571,0.56603 0.19048,0 0.28571,-0.18868 0.28571,-0.56603 z m -6.85714,-1.32076 c 0,-0.37735 -0.0952,-0.56603 -0.28572,-0.56603 -0.19047,0 -0.2857,0.18868 -0.2857,0.56603 0,0.37736 0.0952,0.56604 0.2857,0.56604 0.19048,0 0.28572,-0.18868 0.28572,-0.56604 z m 6.85714,0 c 0,-0.37735 -0.0953,-0.56603 -0.28571,-0.56603 -0.19048,0 -0.28571,0.18868 -0.28571,0.56603 0,0.37736 0.0953,0.56604 0.28571,0.56604 0.19048,0 0.28571,-0.18868 0.28571,-0.56604 z m -6.85714,-1.88678 c 0,-0.88051 -0.0635,-1.13208 -0.28572,-1.13208 -0.22221,0 -0.2857,0.25157 -0.2857,1.13208 0,0.8805 0.0635,1.13206 0.2857,1.13206 0.22223,0 0.28572,-0.25156 0.28572,-1.13206 z m 6.85714,0 c 0,-0.88051 -0.0635,-1.13208 -0.28571,-1.13208 -0.22222,0 -0.28571,0.25157 -0.28571,1.13208 0,0.8805 0.0635,1.13206 0.28571,1.13206 0.22223,0 0.28571,-0.25156 0.28571,-1.13206 z m -6.85714,-1.8868 c 0,-0.37736 -0.0952,-0.56603 -0.28572,-0.56603 -0.19047,0 -0.2857,0.18867 -0.2857,0.56603 0,0.37735 0.0952,0.56604 0.2857,0.56604 0.19048,0 0.28572,-0.18869 0.28572,-0.56604 z m 6.85714,0 c 0,-0.37736 -0.0953,-0.56603 -0.28571,-0.56603 -0.19048,0 -0.28571,0.18867 -0.28571,0.56603 0,0.37735 0.0953,0.56604 0.28571,0.56604 0.19048,0 0.28571,-0.18869 0.28571,-0.56604 z m -6.85714,-1.32075 c 0,-0.37736 -0.0952,-0.56604 -0.28572,-0.56604 -0.19047,0 -0.2857,0.18868 -0.2857,0.56604 0,0.37735 0.0952,0.56604 0.2857,0.56604 0.19048,0 0.28572,-0.18869 0.28572,-0.56604 z m 6.85714,0 c 0,-0.37736 -0.0953,-0.56604 -0.28571,-0.56604 -0.19048,0 -0.28571,0.18868 -0.28571,0.56604 0,0.37735 0.0953,0.56604 0.28571,0.56604 0.19048,0 0.28571,-0.18869 0.28571,-0.56604 z m -6.85714,-1.88679 c 0,-0.86238 -0.0657,-1.13208 -0.27577,-1.13208 -0.21069,0 -0.2745,0.26721 -0.27032,1.13208 0.004,0.84929 0.073,1.13207 0.27578,1.13207 0.2034,0 0.27031,-0.28024 0.27031,-1.13207 z m 6.85714,0 c 0,-0.88051 -0.0635,-1.13208 -0.28571,-1.13208 -0.22222,0 -0.28571,0.25157 -0.28571,1.13208 0,0.8805 0.0635,1.13207 0.28571,1.13207 0.22223,0 0.28571,-0.25157 0.28571,-1.13207 z m -6.85714,-1.8868 c 0,-0.37736 -0.0952,-0.56603 -0.28572,-0.56603 -0.19047,0 -0.2857,0.18867 -0.2857,0.56603 0,0.37737 0.0952,0.56604 0.2857,0.56604 0.19048,0 0.28572,-0.18867 0.28572,-0.56604 z m 6.85714,0 c 0,-0.37736 -0.0953,-0.56603 -0.28571,-0.56603 -0.19048,0 -0.28571,0.18867 -0.28571,0.56603 0,0.37737 0.0953,0.56604 0.28571,0.56604 0.19048,0 0.28571,-0.18867 0.28571,-0.56604 z"
         style="fill:#808000;stroke:#808000;stroke-width:1;stroke-miterlimit:4;stroke-opacity:1;stroke-dasharray:none;stroke-dashoffset:0" />
      <text
         id="text4778"
         y="316.36218"
         x="370"
         xml:space="preserve"><tspan
           y="316.36218"
           x="370"
           id="tspan4780"
           sodipodi:role="line">E<tspan
   id="tspan5065"
   style="font-size:65.00091553%;baseline-shift:sub">nb_elements</tspan></tspan></text>
      <path
         inkscape:connector-curvature="0"
         id="path4639-0"
         d="m 79.99999,352.36219 0,-10 10.00001,0 9.99999,0 0,10 0,10 -9.99999,0 -10.00001,0 0,-10 z"
         style="fill:#008080;stroke:#008080;stroke-width:0.99999994;stroke-miterlimit:4;stroke-opacity:1;stroke-dasharray:none;stroke-dashoffset:0" />
      <path
         inkscape:connector-curvature="0"
         id="path4675-53"
         d="m 310,352.36219 0,-10 3.23809,0 3.2381,0 0,0.84906 c 0,0.62893 0.074,0.84906 0.2857,0.84906 0.21165,0 0.28572,-0.22013 0.28572,-0.84906 l 0,-0.84906 3.14286,0 3.14286,0 0,0.84906 c 0,0.62893 0.074,0.84906 0.28571,0.84906 0.21164,0 0.28571,-0.22013 0.28571,-0.84906 l 0,-0.84906 3.04762,0 3.04763,0 0,10 0,10 -3.04763,0 c -1.90476,0 -3.04762,-0.0708 -3.04762,-0.18869 0,-0.10376 -0.12856,-0.18867 -0.28571,-0.18867 -0.15714,0 -0.28571,0.0849 -0.28571,0.18867 0,0.11817 -1.1746,0.18869 -3.14286,0.18869 -1.96826,0 -3.14286,-0.0705 -3.14286,-0.18869 0,-0.10376 -0.12857,-0.18867 -0.28572,-0.18867 -0.15714,0 -0.2857,0.0849 -0.2857,0.18867 0,0.1184 -1.20636,0.18869 -3.2381,0.18869 l -3.23809,0 0,-10 z m 7.04761,8.30188 c 0,-0.8805 -0.0635,-1.13208 -0.28572,-1.13208 -0.22221,0 -0.2857,0.25158 -0.2857,1.13208 0,0.88051 0.0635,1.13208 0.2857,1.13208 0.22223,0 0.28572,-0.25157 0.28572,-1.13208 z m 6.85714,0 c 0,-0.8805 -0.0635,-1.13208 -0.28571,-1.13208 -0.22222,0 -0.28571,0.25158 -0.28571,1.13208 0,0.88051 0.0635,1.13208 0.28571,1.13208 0.22223,0 0.28571,-0.25157 0.28571,-1.13208 z m -6.85714,-1.88679 c 0,-0.37735 -0.0952,-0.56604 -0.28572,-0.56604 -0.19047,0 -0.2857,0.18869 -0.2857,0.56604 0,0.37736 0.0952,0.56604 0.2857,0.56604 0.19048,0 0.28572,-0.18868 0.28572,-0.56604 z m 6.85714,0 c 0,-0.37735 -0.0953,-0.56604 -0.28571,-0.56604 -0.19048,0 -0.28571,0.18869 -0.28571,0.56604 0,0.37736 0.0953,0.56604 0.28571,0.56604 0.19048,0 0.28571,-0.18868 0.28571,-0.56604 z m -6.85714,-1.88679 c 0,-0.85184 -0.0669,-1.13207 -0.27031,-1.13207 -0.20279,0 -0.27168,0.28278 -0.27578,1.13207 -0.004,0.86487 0.0596,1.13207 0.27032,1.13207 0.21008,0 0.27577,-0.2697 0.27577,-1.13207 z m 6.85714,0 c 0,-0.8805 -0.0635,-1.13207 -0.28571,-1.13207 -0.22222,0 -0.28571,0.25157 -0.28571,1.13207 0,0.88051 0.0635,1.13207 0.28571,1.13207 0.22223,0 0.28571,-0.25156 0.28571,-1.13207 z m -6.85714,-1.88679 c 0,-0.37736 -0.0952,-0.56603 -0.28572,-0.56603 -0.19047,0 -0.2857,0.18867 -0.2857,0.56603 0,0.37735 0.0952,0.56603 0.2857,0.56603 0.19048,0 0.28572,-0.18868 0.28572,-0.56603 z m 6.85714,0 c 0,-0.37736 -0.0953,-0.56603 -0.28571,-0.56603 -0.19048,0 -0.28571,0.18867 -0.28571,0.56603 0,0.37735 0.0953,0.56603 0.28571,0.56603 0.19048,0 0.28571,-0.18868 0.28571,-0.56603 z m -6.85714,-1.32076 c 0,-0.37735 -0.0952,-0.56603 -0.28572,-0.56603 -0.19047,0 -0.2857,0.18868 -0.2857,0.56603 0,0.37736 0.0952,0.56604 0.2857,0.56604 0.19048,0 0.28572,-0.18868 0.28572,-0.56604 z m 6.85714,0 c 0,-0.37735 -0.0953,-0.56603 -0.28571,-0.56603 -0.19048,0 -0.28571,0.18868 -0.28571,0.56603 0,0.37736 0.0953,0.56604 0.28571,0.56604 0.19048,0 0.28571,-0.18868 0.28571,-0.56604 z m -6.85714,-1.88678 c 0,-0.88051 -0.0635,-1.13208 -0.28572,-1.13208 -0.22221,0 -0.2857,0.25157 -0.2857,1.13208 0,0.8805 0.0635,1.13206 0.2857,1.13206 0.22223,0 0.28572,-0.25156 0.28572,-1.13206 z m 6.85714,0 c 0,-0.88051 -0.0635,-1.13208 -0.28571,-1.13208 -0.22222,0 -0.28571,0.25157 -0.28571,1.13208 0,0.8805 0.0635,1.13206 0.28571,1.13206 0.22223,0 0.28571,-0.25156 0.28571,-1.13206 z m -6.85714,-1.8868 c 0,-0.37736 -0.0952,-0.56603 -0.28572,-0.56603 -0.19047,0 -0.2857,0.18867 -0.2857,0.56603 0,0.37735 0.0952,0.56604 0.2857,0.56604 0.19048,0 0.28572,-0.18869 0.28572,-0.56604 z m 6.85714,0 c 0,-0.37736 -0.0953,-0.56603 -0.28571,-0.56603 -0.19048,0 -0.28571,0.18867 -0.28571,0.56603 0,0.37735 0.0953,0.56604 0.28571,0.56604 0.19048,0 0.28571,-0.18869 0.28571,-0.56604 z m -6.85714,-1.32075 c 0,-0.37736 -0.0952,-0.56604 -0.28572,-0.56604 -0.19047,0 -0.2857,0.18868 -0.2857,0.56604 0,0.37735 0.0952,0.56604 0.2857,0.56604 0.19048,0 0.28572,-0.18869 0.28572,-0.56604 z m 6.85714,0 c 0,-0.37736 -0.0953,-0.56604 -0.28571,-0.56604 -0.19048,0 -0.28571,0.18868 -0.28571,0.56604 0,0.37735 0.0953,0.56604 0.28571,0.56604 0.19048,0 0.28571,-0.18869 0.28571,-0.56604 z m -6.85714,-1.88679 c 0,-0.86238 -0.0657,-1.13208 -0.27577,-1.13208 -0.21069,0 -0.2745,0.26721 -0.27032,1.13208 0.004,0.84929 0.073,1.13207 0.27578,1.13207 0.2034,0 0.27031,-0.28024 0.27031,-1.13207 z m 6.85714,0 c 0,-0.88051 -0.0635,-1.13208 -0.28571,-1.13208 -0.22222,0 -0.28571,0.25157 -0.28571,1.13208 0,0.8805 0.0635,1.13207 0.28571,1.13207 0.22223,0 0.28571,-0.25157 0.28571,-1.13207 z m -6.85714,-1.8868 c 0,-0.37736 -0.0952,-0.56603 -0.28572,-0.56603 -0.19047,0 -0.2857,0.18867 -0.2857,0.56603 0,0.37737 0.0952,0.56604 0.2857,0.56604 0.19048,0 0.28572,-0.18867 0.28572,-0.56604 z m 6.85714,0 c 0,-0.37736 -0.0953,-0.56603 -0.28571,-0.56603 -0.19048,0 -0.28571,0.18867 -0.28571,0.56603 0,0.37737 0.0953,0.56604 0.28571,0.56604 0.19048,0 0.28571,-0.18867 0.28571,-0.56604 z"
         style="fill:#808000;stroke:#808000;stroke-width:1;stroke-miterlimit:4;stroke-opacity:1;stroke-dasharray:none;stroke-dashoffset:0" />
      <path
         inkscape:connector-curvature="0"
         id="path4675-3"
         d="m 330,352.36219 0,-10 3.23809,0 3.2381,0 0,0.84906 c 0,0.62893 0.074,0.84906 0.2857,0.84906 0.21165,0 0.28572,-0.22013 0.28572,-0.84906 l 0,-0.84906 3.14286,0 3.14286,0 0,0.84906 c 0,0.62893 0.074,0.84906 0.28571,0.84906 0.21164,0 0.28571,-0.22013 0.28571,-0.84906 l 0,-0.84906 3.04762,0 3.04763,0 0,10 0,10 -3.04763,0 c -1.90476,0 -3.04762,-0.0708 -3.04762,-0.18869 0,-0.10376 -0.12856,-0.18867 -0.28571,-0.18867 -0.15714,0 -0.28571,0.0849 -0.28571,0.18867 0,0.11817 -1.1746,0.18869 -3.14286,0.18869 -1.96826,0 -3.14286,-0.0705 -3.14286,-0.18869 0,-0.10376 -0.12857,-0.18867 -0.28572,-0.18867 -0.15714,0 -0.2857,0.0849 -0.2857,0.18867 0,0.1184 -1.20636,0.18869 -3.2381,0.18869 l -3.23809,0 0,-10 z m 7.04761,8.30188 c 0,-0.8805 -0.0635,-1.13208 -0.28572,-1.13208 -0.22221,0 -0.2857,0.25158 -0.2857,1.13208 0,0.88051 0.0635,1.13208 0.2857,1.13208 0.22223,0 0.28572,-0.25157 0.28572,-1.13208 z m 6.85714,0 c 0,-0.8805 -0.0635,-1.13208 -0.28571,-1.13208 -0.22222,0 -0.28571,0.25158 -0.28571,1.13208 0,0.88051 0.0635,1.13208 0.28571,1.13208 0.22223,0 0.28571,-0.25157 0.28571,-1.13208 z m -6.85714,-1.88679 c 0,-0.37735 -0.0952,-0.56604 -0.28572,-0.56604 -0.19047,0 -0.2857,0.18869 -0.2857,0.56604 0,0.37736 0.0952,0.56604 0.2857,0.56604 0.19048,0 0.28572,-0.18868 0.28572,-0.56604 z m 6.85714,0 c 0,-0.37735 -0.0953,-0.56604 -0.28571,-0.56604 -0.19048,0 -0.28571,0.18869 -0.28571,0.56604 0,0.37736 0.0953,0.56604 0.28571,0.56604 0.19048,0 0.28571,-0.18868 0.28571,-0.56604 z m -6.85714,-1.88679 c 0,-0.85184 -0.0669,-1.13207 -0.27031,-1.13207 -0.20279,0 -0.27168,0.28278 -0.27578,1.13207 -0.004,0.86487 0.0596,1.13207 0.27032,1.13207 0.21008,0 0.27577,-0.2697 0.27577,-1.13207 z m 6.85714,0 c 0,-0.8805 -0.0635,-1.13207 -0.28571,-1.13207 -0.22222,0 -0.28571,0.25157 -0.28571,1.13207 0,0.88051 0.0635,1.13207 0.28571,1.13207 0.22223,0 0.28571,-0.25156 0.28571,-1.13207 z m -6.85714,-1.88679 c 0,-0.37736 -0.0952,-0.56603 -0.28572,-0.56603 -0.19047,0 -0.2857,0.18867 -0.2857,0.56603 0,0.37735 0.0952,0.56603 0.2857,0.56603 0.19048,0 0.28572,-0.18868 0.28572,-0.56603 z m 6.85714,0 c 0,-0.37736 -0.0953,-0.56603 -0.28571,-0.56603 -0.19048,0 -0.28571,0.18867 -0.28571,0.56603 0,0.37735 0.0953,0.56603 0.28571,0.56603 0.19048,0 0.28571,-0.18868 0.28571,-0.56603 z m -6.85714,-1.32076 c 0,-0.37735 -0.0952,-0.56603 -0.28572,-0.56603 -0.19047,0 -0.2857,0.18868 -0.2857,0.56603 0,0.37736 0.0952,0.56604 0.2857,0.56604 0.19048,0 0.28572,-0.18868 0.28572,-0.56604 z m 6.85714,0 c 0,-0.37735 -0.0953,-0.56603 -0.28571,-0.56603 -0.19048,0 -0.28571,0.18868 -0.28571,0.56603 0,0.37736 0.0953,0.56604 0.28571,0.56604 0.19048,0 0.28571,-0.18868 0.28571,-0.56604 z m -6.85714,-1.88678 c 0,-0.88051 -0.0635,-1.13208 -0.28572,-1.13208 -0.22221,0 -0.2857,0.25157 -0.2857,1.13208 0,0.8805 0.0635,1.13206 0.2857,1.13206 0.22223,0 0.28572,-0.25156 0.28572,-1.13206 z m 6.85714,0 c 0,-0.88051 -0.0635,-1.13208 -0.28571,-1.13208 -0.22222,0 -0.28571,0.25157 -0.28571,1.13208 0,0.8805 0.0635,1.13206 0.28571,1.13206 0.22223,0 0.28571,-0.25156 0.28571,-1.13206 z m -6.85714,-1.8868 c 0,-0.37736 -0.0952,-0.56603 -0.28572,-0.56603 -0.19047,0 -0.2857,0.18867 -0.2857,0.56603 0,0.37735 0.0952,0.56604 0.2857,0.56604 0.19048,0 0.28572,-0.18869 0.28572,-0.56604 z m 6.85714,0 c 0,-0.37736 -0.0953,-0.56603 -0.28571,-0.56603 -0.19048,0 -0.28571,0.18867 -0.28571,0.56603 0,0.37735 0.0953,0.56604 0.28571,0.56604 0.19048,0 0.28571,-0.18869 0.28571,-0.56604 z m -6.85714,-1.32075 c 0,-0.37736 -0.0952,-0.56604 -0.28572,-0.56604 -0.19047,0 -0.2857,0.18868 -0.2857,0.56604 0,0.37735 0.0952,0.56604 0.2857,0.56604 0.19048,0 0.28572,-0.18869 0.28572,-0.56604 z m 6.85714,0 c 0,-0.37736 -0.0953,-0.56604 -0.28571,-0.56604 -0.19048,0 -0.28571,0.18868 -0.28571,0.56604 0,0.37735 0.0953,0.56604 0.28571,0.56604 0.19048,0 0.28571,-0.18869 0.28571,-0.56604 z m -6.85714,-1.88679 c 0,-0.86238 -0.0657,-1.13208 -0.27577,-1.13208 -0.21069,0 -0.2745,0.26721 -0.27032,1.13208 0.004,0.84929 0.073,1.13207 0.27578,1.13207 0.2034,0 0.27031,-0.28024 0.27031,-1.13207 z m 6.85714,0 c 0,-0.88051 -0.0635,-1.13208 -0.28571,-1.13208 -0.22222,0 -0.28571,0.25157 -0.28571,1.13208 0,0.8805 0.0635,1.13207 0.28571,1.13207 0.22223,0 0.28571,-0.25157 0.28571,-1.13207 z m -6.85714,-1.8868 c 0,-0.37736 -0.0952,-0.56603 -0.28572,-0.56603 -0.19047,0 -0.2857,0.18867 -0.2857,0.56603 0,0.37737 0.0952,0.56604 0.2857,0.56604 0.19048,0 0.28572,-0.18867 0.28572,-0.56604 z m 6.85714,0 c 0,-0.37736 -0.0953,-0.56603 -0.28571,-0.56603 -0.19048,0 -0.28571,0.18867 -0.28571,0.56603 0,0.37737 0.0953,0.56604 0.28571,0.56604 0.19048,0 0.28571,-0.18867 0.28571,-0.56604 z"
         style="fill:#808000;stroke:#808000;stroke-width:1;stroke-miterlimit:4;stroke-opacity:1;stroke-dasharray:none;stroke-dashoffset:0" />
      <path
         inkscape:connector-curvature="0"
         id="path4675-9"
         d="m 350,352.36219 0,-10 3.23809,0 3.2381,0 0,0.84906 c 0,0.62893 0.074,0.84906 0.2857,0.84906 0.21165,0 0.28572,-0.22013 0.28572,-0.84906 l 0,-0.84906 3.14286,0 3.14286,0 0,0.84906 c 0,0.62893 0.074,0.84906 0.28571,0.84906 0.21164,0 0.28571,-0.22013 0.28571,-0.84906 l 0,-0.84906 3.04762,0 3.04763,0 0,10 0,10 -3.04763,0 c -1.90476,0 -3.04762,-0.0708 -3.04762,-0.18869 0,-0.10376 -0.12856,-0.18867 -0.28571,-0.18867 -0.15714,0 -0.28571,0.0849 -0.28571,0.18867 0,0.11817 -1.1746,0.18869 -3.14286,0.18869 -1.96826,0 -3.14286,-0.0705 -3.14286,-0.18869 0,-0.10376 -0.12857,-0.18867 -0.28572,-0.18867 -0.15714,0 -0.2857,0.0849 -0.2857,0.18867 0,0.1184 -1.20636,0.18869 -3.2381,0.18869 l -3.23809,0 0,-10 z m 7.04761,8.30188 c 0,-0.8805 -0.0635,-1.13208 -0.28572,-1.13208 -0.22221,0 -0.2857,0.25158 -0.2857,1.13208 0,0.88051 0.0635,1.13208 0.2857,1.13208 0.22223,0 0.28572,-0.25157 0.28572,-1.13208 z m 6.85714,0 c 0,-0.8805 -0.0635,-1.13208 -0.28571,-1.13208 -0.22222,0 -0.28571,0.25158 -0.28571,1.13208 0,0.88051 0.0635,1.13208 0.28571,1.13208 0.22223,0 0.28571,-0.25157 0.28571,-1.13208 z m -6.85714,-1.88679 c 0,-0.37735 -0.0952,-0.56604 -0.28572,-0.56604 -0.19047,0 -0.2857,0.18869 -0.2857,0.56604 0,0.37736 0.0952,0.56604 0.2857,0.56604 0.19048,0 0.28572,-0.18868 0.28572,-0.56604 z m 6.85714,0 c 0,-0.37735 -0.0953,-0.56604 -0.28571,-0.56604 -0.19048,0 -0.28571,0.18869 -0.28571,0.56604 0,0.37736 0.0953,0.56604 0.28571,0.56604 0.19048,0 0.28571,-0.18868 0.28571,-0.56604 z m -6.85714,-1.88679 c 0,-0.85184 -0.0669,-1.13207 -0.27031,-1.13207 -0.20279,0 -0.27168,0.28278 -0.27578,1.13207 -0.004,0.86487 0.0596,1.13207 0.27032,1.13207 0.21008,0 0.27577,-0.2697 0.27577,-1.13207 z m 6.85714,0 c 0,-0.8805 -0.0635,-1.13207 -0.28571,-1.13207 -0.22222,0 -0.28571,0.25157 -0.28571,1.13207 0,0.88051 0.0635,1.13207 0.28571,1.13207 0.22223,0 0.28571,-0.25156 0.28571,-1.13207 z m -6.85714,-1.88679 c 0,-0.37736 -0.0952,-0.56603 -0.28572,-0.56603 -0.19047,0 -0.2857,0.18867 -0.2857,0.56603 0,0.37735 0.0952,0.56603 0.2857,0.56603 0.19048,0 0.28572,-0.18868 0.28572,-0.56603 z m 6.85714,0 c 0,-0.37736 -0.0953,-0.56603 -0.28571,-0.56603 -0.19048,0 -0.28571,0.18867 -0.28571,0.56603 0,0.37735 0.0953,0.56603 0.28571,0.56603 0.19048,0 0.28571,-0.18868 0.28571,-0.56603 z m -6.85714,-1.32076 c 0,-0.37735 -0.0952,-0.56603 -0.28572,-0.56603 -0.19047,0 -0.2857,0.18868 -0.2857,0.56603 0,0.37736 0.0952,0.56604 0.2857,0.56604 0.19048,0 0.28572,-0.18868 0.28572,-0.56604 z m 6.85714,0 c 0,-0.37735 -0.0953,-0.56603 -0.28571,-0.56603 -0.19048,0 -0.28571,0.18868 -0.28571,0.56603 0,0.37736 0.0953,0.56604 0.28571,0.56604 0.19048,0 0.28571,-0.18868 0.28571,-0.56604 z m -6.85714,-1.88678 c 0,-0.88051 -0.0635,-1.13208 -0.28572,-1.13208 -0.22221,0 -0.2857,0.25157 -0.2857,1.13208 0,0.8805 0.0635,1.13206 0.2857,1.13206 0.22223,0 0.28572,-0.25156 0.28572,-1.13206 z m 6.85714,0 c 0,-0.88051 -0.0635,-1.13208 -0.28571,-1.13208 -0.22222,0 -0.28571,0.25157 -0.28571,1.13208 0,0.8805 0.0635,1.13206 0.28571,1.13206 0.22223,0 0.28571,-0.25156 0.28571,-1.13206 z m -6.85714,-1.8868 c 0,-0.37736 -0.0952,-0.56603 -0.28572,-0.56603 -0.19047,0 -0.2857,0.18867 -0.2857,0.56603 0,0.37735 0.0952,0.56604 0.2857,0.56604 0.19048,0 0.28572,-0.18869 0.28572,-0.56604 z m 6.85714,0 c 0,-0.37736 -0.0953,-0.56603 -0.28571,-0.56603 -0.19048,0 -0.28571,0.18867 -0.28571,0.56603 0,0.37735 0.0953,0.56604 0.28571,0.56604 0.19048,0 0.28571,-0.18869 0.28571,-0.56604 z m -6.85714,-1.32075 c 0,-0.37736 -0.0952,-0.56604 -0.28572,-0.56604 -0.19047,0 -0.2857,0.18868 -0.2857,0.56604 0,0.37735 0.0952,0.56604 0.2857,0.56604 0.19048,0 0.28572,-0.18869 0.28572,-0.56604 z m 6.85714,0 c 0,-0.37736 -0.0953,-0.56604 -0.28571,-0.56604 -0.19048,0 -0.28571,0.18868 -0.28571,0.56604 0,0.37735 0.0953,0.56604 0.28571,0.56604 0.19048,0 0.28571,-0.18869 0.28571,-0.56604 z m -6.85714,-1.88679 c 0,-0.86238 -0.0657,-1.13208 -0.27577,-1.13208 -0.21069,0 -0.2745,0.26721 -0.27032,1.13208 0.004,0.84929 0.073,1.13207 0.27578,1.13207 0.2034,0 0.27031,-0.28024 0.27031,-1.13207 z m 6.85714,0 c 0,-0.88051 -0.0635,-1.13208 -0.28571,-1.13208 -0.22222,0 -0.28571,0.25157 -0.28571,1.13208 0,0.8805 0.0635,1.13207 0.28571,1.13207 0.22223,0 0.28571,-0.25157 0.28571,-1.13207 z m -6.85714,-1.8868 c 0,-0.37736 -0.0952,-0.56603 -0.28572,-0.56603 -0.19047,0 -0.2857,0.18867 -0.2857,0.56603 0,0.37737 0.0952,0.56604 0.2857,0.56604 0.19048,0 0.28572,-0.18867 0.28572,-0.56604 z m 6.85714,0 c 0,-0.37736 -0.0953,-0.56603 -0.28571,-0.56603 -0.19048,0 -0.28571,0.18867 -0.28571,0.56603 0,0.37737 0.0953,0.56604 0.28571,0.56604 0.19048,0 0.28571,-0.18867 0.28571,-0.56604 z"
         style="fill:#808000;stroke:#808000;stroke-width:1;stroke-miterlimit:4;stroke-opacity:1;stroke-dasharray:none;stroke-dashoffset:0" />
      <path
         inkscape:connector-curvature="0"
         id="path4641-4-4"
         d="m 370,352.3622 0,-10 10,0 10,0 0,10 0,10 -10,0 -10,0 0,-10 z"
         style="fill:#008080;stroke:#008080;stroke-width:0.99999994;stroke-miterlimit:4;stroke-opacity:1;stroke-dasharray:none;stroke-dashoffset:0" />
      <path
         inkscape:connector-curvature="0"
         id="path4641-4-2"
         d="m 390,352.3622 0,-10 10,0 10,0 0,10 0,9.99999 -10,0 -10,0 0,-9.99999 z"
         style="fill:#008080;stroke:#008080;stroke-width:0.99999994;stroke-miterlimit:4;stroke-opacity:1;stroke-dasharray:none;stroke-dashoffset:0" />
      <path
         inkscape:connector-curvature="0"
         id="path4641-4-2-6"
         d="m 410,352.36219 0,-10 10,0 10,0 0,10 0,9.99999 -10,0 -10,0 0,-9.99999 z"
         style="fill:#008080;stroke:#008080;stroke-width:0.99999994;stroke-miterlimit:4;stroke-opacity:1;stroke-dasharray:none;stroke-dashoffset:0" />
      <path
         inkscape:connector-curvature="0"
         id="path4639-07-1"
         d="m 215,352.36219 0,-10 10.00001,0 9.99999,0 0,10 0,10 -9.99999,0 -10.00001,0 0,-10 z"
         style="fill:#008080;stroke:#008080;stroke-width:0.99999994;stroke-miterlimit:4;stroke-opacity:1;stroke-dasharray:none;stroke-dashoffset:0" />
      <path
         inkscape:connector-curvature="0"
         id="path4639-07-4"
         d="m 235,352.36219 0,-10 10.00001,0 9.99999,0 0,10 0,10 -9.99999,0 -10.00001,0 0,-10 z"
         style="fill:#008080;stroke:#008080;stroke-width:0.99999994;stroke-miterlimit:4;stroke-opacity:1;stroke-dasharray:none;stroke-dashoffset:0" />
      <path
         inkscape:connector-curvature="0"
         id="path4639-07-6"
         d="m 255,352.36219 0,-10 10.00001,0 9.99999,0 0,10 0,10 -9.99999,0 -10.00001,0 0,-10 z"
         style="fill:#008080;stroke:#008080;stroke-width:0.99999994;stroke-miterlimit:4;stroke-opacity:1;stroke-dasharray:none;stroke-dashoffset:0" />
      <path
         inkscape:connector-curvature="0"
         id="path4639-07"
         d="m 100,352.36219 0,-10 10.00001,0 9.99999,0 0,10 0,10 -9.99999,0 -10.00001,0 0,-10 z"
         style="fill:#008080;stroke:#008080;stroke-width:0.99999994;stroke-miterlimit:4;stroke-opacity:1;stroke-dasharray:none;stroke-dashoffset:0" />
      <path
         inkscape:connector-curvature="0"
         id="path4675-30"
         d="m 140,352.36219 0,-10 3.23809,0 3.2381,0 0,0.84906 c 0,0.62893 0.074,0.84906 0.2857,0.84906 0.21165,0 0.28572,-0.22013 0.28572,-0.84906 l 0,-0.84906 3.14286,0 3.14286,0 0,0.84906 c 0,0.62893 0.074,0.84906 0.28571,0.84906 0.21164,0 0.28571,-0.22013 0.28571,-0.84906 l 0,-0.84906 3.04762,0 3.04763,0 0,10 0,10 -3.04763,0 c -1.90476,0 -3.04762,-0.0708 -3.04762,-0.18869 0,-0.10376 -0.12856,-0.18867 -0.28571,-0.18867 -0.15714,0 -0.28571,0.0849 -0.28571,0.18867 0,0.11817 -1.1746,0.18869 -3.14286,0.18869 -1.96826,0 -3.14286,-0.0705 -3.14286,-0.18869 0,-0.10376 -0.12857,-0.18867 -0.28572,-0.18867 -0.15714,0 -0.2857,0.0849 -0.2857,0.18867 0,0.1184 -1.20636,0.18869 -3.2381,0.18869 l -3.23809,0 0,-10 z m 7.04761,8.30188 c 0,-0.8805 -0.0635,-1.13208 -0.28572,-1.13208 -0.22221,0 -0.2857,0.25158 -0.2857,1.13208 0,0.88051 0.0635,1.13208 0.2857,1.13208 0.22223,0 0.28572,-0.25157 0.28572,-1.13208 z m 6.85714,0 c 0,-0.8805 -0.0635,-1.13208 -0.28571,-1.13208 -0.22222,0 -0.28571,0.25158 -0.28571,1.13208 0,0.88051 0.0635,1.13208 0.28571,1.13208 0.22223,0 0.28571,-0.25157 0.28571,-1.13208 z m -6.85714,-1.88679 c 0,-0.37735 -0.0952,-0.56604 -0.28572,-0.56604 -0.19047,0 -0.2857,0.18869 -0.2857,0.56604 0,0.37736 0.0952,0.56604 0.2857,0.56604 0.19048,0 0.28572,-0.18868 0.28572,-0.56604 z m 6.85714,0 c 0,-0.37735 -0.0953,-0.56604 -0.28571,-0.56604 -0.19048,0 -0.28571,0.18869 -0.28571,0.56604 0,0.37736 0.0953,0.56604 0.28571,0.56604 0.19048,0 0.28571,-0.18868 0.28571,-0.56604 z m -6.85714,-1.88679 c 0,-0.85184 -0.0669,-1.13207 -0.27031,-1.13207 -0.20279,0 -0.27168,0.28278 -0.27578,1.13207 -0.004,0.86487 0.0596,1.13207 0.27032,1.13207 0.21008,0 0.27577,-0.2697 0.27577,-1.13207 z m 6.85714,0 c 0,-0.8805 -0.0635,-1.13207 -0.28571,-1.13207 -0.22222,0 -0.28571,0.25157 -0.28571,1.13207 0,0.88051 0.0635,1.13207 0.28571,1.13207 0.22223,0 0.28571,-0.25156 0.28571,-1.13207 z m -6.85714,-1.88679 c 0,-0.37736 -0.0952,-0.56603 -0.28572,-0.56603 -0.19047,0 -0.2857,0.18867 -0.2857,0.56603 0,0.37735 0.0952,0.56603 0.2857,0.56603 0.19048,0 0.28572,-0.18868 0.28572,-0.56603 z m 6.85714,0 c 0,-0.37736 -0.0953,-0.56603 -0.28571,-0.56603 -0.19048,0 -0.28571,0.18867 -0.28571,0.56603 0,0.37735 0.0953,0.56603 0.28571,0.56603 0.19048,0 0.28571,-0.18868 0.28571,-0.56603 z m -6.85714,-1.32076 c 0,-0.37735 -0.0952,-0.56603 -0.28572,-0.56603 -0.19047,0 -0.2857,0.18868 -0.2857,0.56603 0,0.37736 0.0952,0.56604 0.2857,0.56604 0.19048,0 0.28572,-0.18868 0.28572,-0.56604 z m 6.85714,0 c 0,-0.37735 -0.0953,-0.56603 -0.28571,-0.56603 -0.19048,0 -0.28571,0.18868 -0.28571,0.56603 0,0.37736 0.0953,0.56604 0.28571,0.56604 0.19048,0 0.28571,-0.18868 0.28571,-0.56604 z m -6.85714,-1.88678 c 0,-0.88051 -0.0635,-1.13208 -0.28572,-1.13208 -0.22221,0 -0.2857,0.25157 -0.2857,1.13208 0,0.8805 0.0635,1.13206 0.2857,1.13206 0.22223,0 0.28572,-0.25156 0.28572,-1.13206 z m 6.85714,0 c 0,-0.88051 -0.0635,-1.13208 -0.28571,-1.13208 -0.22222,0 -0.28571,0.25157 -0.28571,1.13208 0,0.8805 0.0635,1.13206 0.28571,1.13206 0.22223,0 0.28571,-0.25156 0.28571,-1.13206 z m -6.85714,-1.8868 c 0,-0.37736 -0.0952,-0.56603 -0.28572,-0.56603 -0.19047,0 -0.2857,0.18867 -0.2857,0.56603 0,0.37735 0.0952,0.56604 0.2857,0.56604 0.19048,0 0.28572,-0.18869 0.28572,-0.56604 z m 6.85714,0 c 0,-0.37736 -0.0953,-0.56603 -0.28571,-0.56603 -0.19048,0 -0.28571,0.18867 -0.28571,0.56603 0,0.37735 0.0953,0.56604 0.28571,0.56604 0.19048,0 0.28571,-0.18869 0.28571,-0.56604 z m -6.85714,-1.32075 c 0,-0.37736 -0.0952,-0.56604 -0.28572,-0.56604 -0.19047,0 -0.2857,0.18868 -0.2857,0.56604 0,0.37735 0.0952,0.56604 0.2857,0.56604 0.19048,0 0.28572,-0.18869 0.28572,-0.56604 z m 6.85714,0 c 0,-0.37736 -0.0953,-0.56604 -0.28571,-0.56604 -0.19048,0 -0.28571,0.18868 -0.28571,0.56604 0,0.37735 0.0953,0.56604 0.28571,0.56604 0.19048,0 0.28571,-0.18869 0.28571,-0.56604 z m -6.85714,-1.88679 c 0,-0.86238 -0.0657,-1.13208 -0.27577,-1.13208 -0.21069,0 -0.2745,0.26721 -0.27032,1.13208 0.004,0.84929 0.073,1.13207 0.27578,1.13207 0.2034,0 0.27031,-0.28024 0.27031,-1.13207 z m 6.85714,0 c 0,-0.88051 -0.0635,-1.13208 -0.28571,-1.13208 -0.22222,0 -0.28571,0.25157 -0.28571,1.13208 0,0.8805 0.0635,1.13207 0.28571,1.13207 0.22223,0 0.28571,-0.25157 0.28571,-1.13207 z m -6.85714,-1.8868 c 0,-0.37736 -0.0952,-0.56603 -0.28572,-0.56603 -0.19047,0 -0.2857,0.18867 -0.2857,0.56603 0,0.37737 0.0952,0.56604 0.2857,0.56604 0.19048,0 0.28572,-0.18867 0.28572,-0.56604 z m 6.85714,0 c 0,-0.37736 -0.0953,-0.56603 -0.28571,-0.56603 -0.19048,0 -0.28571,0.18867 -0.28571,0.56603 0,0.37737 0.0953,0.56604 0.28571,0.56604 0.19048,0 0.28571,-0.18867 0.28571,-0.56604 z"
         style="fill:#808000;stroke:#808000;stroke-width:1;stroke-miterlimit:4;stroke-opacity:1;stroke-dasharray:none;stroke-dashoffset:0" />
      <path
         inkscape:connector-curvature="0"
         id="path4675-0"
         d="m 160,352.36219 0,-10 3.23809,0 3.2381,0 0,0.84906 c 0,0.62893 0.074,0.84906 0.2857,0.84906 0.21165,0 0.28572,-0.22013 0.28572,-0.84906 l 0,-0.84906 3.14286,0 3.14286,0 0,0.84906 c 0,0.62893 0.074,0.84906 0.28571,0.84906 0.21164,0 0.28571,-0.22013 0.28571,-0.84906 l 0,-0.84906 3.04762,0 3.04763,0 0,10 0,10 -3.04763,0 c -1.90476,0 -3.04762,-0.0708 -3.04762,-0.18869 0,-0.10376 -0.12856,-0.18867 -0.28571,-0.18867 -0.15714,0 -0.28571,0.0849 -0.28571,0.18867 0,0.11817 -1.1746,0.18869 -3.14286,0.18869 -1.96826,0 -3.14286,-0.0705 -3.14286,-0.18869 0,-0.10376 -0.12857,-0.18867 -0.28572,-0.18867 -0.15714,0 -0.2857,0.0849 -0.2857,0.18867 0,0.1184 -1.20636,0.18869 -3.2381,0.18869 l -3.23809,0 0,-10 z m 7.04761,8.30188 c 0,-0.8805 -0.0635,-1.13208 -0.28572,-1.13208 -0.22221,0 -0.2857,0.25158 -0.2857,1.13208 0,0.88051 0.0635,1.13208 0.2857,1.13208 0.22223,0 0.28572,-0.25157 0.28572,-1.13208 z m 6.85714,0 c 0,-0.8805 -0.0635,-1.13208 -0.28571,-1.13208 -0.22222,0 -0.28571,0.25158 -0.28571,1.13208 0,0.88051 0.0635,1.13208 0.28571,1.13208 0.22223,0 0.28571,-0.25157 0.28571,-1.13208 z m -6.85714,-1.88679 c 0,-0.37735 -0.0952,-0.56604 -0.28572,-0.56604 -0.19047,0 -0.2857,0.18869 -0.2857,0.56604 0,0.37736 0.0952,0.56604 0.2857,0.56604 0.19048,0 0.28572,-0.18868 0.28572,-0.56604 z m 6.85714,0 c 0,-0.37735 -0.0953,-0.56604 -0.28571,-0.56604 -0.19048,0 -0.28571,0.18869 -0.28571,0.56604 0,0.37736 0.0953,0.56604 0.28571,0.56604 0.19048,0 0.28571,-0.18868 0.28571,-0.56604 z m -6.85714,-1.88679 c 0,-0.85184 -0.0669,-1.13207 -0.27031,-1.13207 -0.20279,0 -0.27168,0.28278 -0.27578,1.13207 -0.004,0.86487 0.0596,1.13207 0.27032,1.13207 0.21008,0 0.27577,-0.2697 0.27577,-1.13207 z m 6.85714,0 c 0,-0.8805 -0.0635,-1.13207 -0.28571,-1.13207 -0.22222,0 -0.28571,0.25157 -0.28571,1.13207 0,0.88051 0.0635,1.13207 0.28571,1.13207 0.22223,0 0.28571,-0.25156 0.28571,-1.13207 z m -6.85714,-1.88679 c 0,-0.37736 -0.0952,-0.56603 -0.28572,-0.56603 -0.19047,0 -0.2857,0.18867 -0.2857,0.56603 0,0.37735 0.0952,0.56603 0.2857,0.56603 0.19048,0 0.28572,-0.18868 0.28572,-0.56603 z m 6.85714,0 c 0,-0.37736 -0.0953,-0.56603 -0.28571,-0.56603 -0.19048,0 -0.28571,0.18867 -0.28571,0.56603 0,0.37735 0.0953,0.56603 0.28571,0.56603 0.19048,0 0.28571,-0.18868 0.28571,-0.56603 z m -6.85714,-1.32076 c 0,-0.37735 -0.0952,-0.56603 -0.28572,-0.56603 -0.19047,0 -0.2857,0.18868 -0.2857,0.56603 0,0.37736 0.0952,0.56604 0.2857,0.56604 0.19048,0 0.28572,-0.18868 0.28572,-0.56604 z m 6.85714,0 c 0,-0.37735 -0.0953,-0.56603 -0.28571,-0.56603 -0.19048,0 -0.28571,0.18868 -0.28571,0.56603 0,0.37736 0.0953,0.56604 0.28571,0.56604 0.19048,0 0.28571,-0.18868 0.28571,-0.56604 z m -6.85714,-1.88678 c 0,-0.88051 -0.0635,-1.13208 -0.28572,-1.13208 -0.22221,0 -0.2857,0.25157 -0.2857,1.13208 0,0.8805 0.0635,1.13206 0.2857,1.13206 0.22223,0 0.28572,-0.25156 0.28572,-1.13206 z m 6.85714,0 c 0,-0.88051 -0.0635,-1.13208 -0.28571,-1.13208 -0.22222,0 -0.28571,0.25157 -0.28571,1.13208 0,0.8805 0.0635,1.13206 0.28571,1.13206 0.22223,0 0.28571,-0.25156 0.28571,-1.13206 z m -6.85714,-1.8868 c 0,-0.37736 -0.0952,-0.56603 -0.28572,-0.56603 -0.19047,0 -0.2857,0.18867 -0.2857,0.56603 0,0.37735 0.0952,0.56604 0.2857,0.56604 0.19048,0 0.28572,-0.18869 0.28572,-0.56604 z m 6.85714,0 c 0,-0.37736 -0.0953,-0.56603 -0.28571,-0.56603 -0.19048,0 -0.28571,0.18867 -0.28571,0.56603 0,0.37735 0.0953,0.56604 0.28571,0.56604 0.19048,0 0.28571,-0.18869 0.28571,-0.56604 z m -6.85714,-1.32075 c 0,-0.37736 -0.0952,-0.56604 -0.28572,-0.56604 -0.19047,0 -0.2857,0.18868 -0.2857,0.56604 0,0.37735 0.0952,0.56604 0.2857,0.56604 0.19048,0 0.28572,-0.18869 0.28572,-0.56604 z m 6.85714,0 c 0,-0.37736 -0.0953,-0.56604 -0.28571,-0.56604 -0.19048,0 -0.28571,0.18868 -0.28571,0.56604 0,0.37735 0.0953,0.56604 0.28571,0.56604 0.19048,0 0.28571,-0.18869 0.28571,-0.56604 z m -6.85714,-1.88679 c 0,-0.86238 -0.0657,-1.13208 -0.27577,-1.13208 -0.21069,0 -0.2745,0.26721 -0.27032,1.13208 0.004,0.84929 0.073,1.13207 0.27578,1.13207 0.2034,0 0.27031,-0.28024 0.27031,-1.13207 z m 6.85714,0 c 0,-0.88051 -0.0635,-1.13208 -0.28571,-1.13208 -0.22222,0 -0.28571,0.25157 -0.28571,1.13208 0,0.8805 0.0635,1.13207 0.28571,1.13207 0.22223,0 0.28571,-0.25157 0.28571,-1.13207 z m -6.85714,-1.8868 c 0,-0.37736 -0.0952,-0.56603 -0.28572,-0.56603 -0.19047,0 -0.2857,0.18867 -0.2857,0.56603 0,0.37737 0.0952,0.56604 0.2857,0.56604 0.19048,0 0.28572,-0.18867 0.28572,-0.56604 z m 6.85714,0 c 0,-0.37736 -0.0953,-0.56603 -0.28571,-0.56603 -0.19048,0 -0.28571,0.18867 -0.28571,0.56603 0,0.37737 0.0953,0.56604 0.28571,0.56604 0.19048,0 0.28571,-0.18867 0.28571,-0.56604 z"
         style="fill:#808000;stroke:#808000;stroke-width:1;stroke-miterlimit:4;stroke-opacity:1;stroke-dasharray:none;stroke-dashoffset:0" />
      <path
         inkscape:connector-curvature="0"
         id="path3989-0"
         d="m 185,352.36219 5,0"
         style="fill:none;stroke:#000000;stroke-width:3;stroke-linecap:butt;stroke-linejoin:miter;stroke-miterlimit:4;stroke-opacity:1;stroke-dasharray:none" />
      <path
         inkscape:connector-curvature="0"
         id="path3989-1-2"
         d="m 195,352.36219 5,0"
         style="fill:none;stroke:#000000;stroke-width:3;stroke-linecap:butt;stroke-linejoin:miter;stroke-miterlimit:4;stroke-opacity:1;stroke-dasharray:none" />
      <path
         inkscape:connector-curvature="0"
         id="path3989-2-5"
         d="m 205,352.36219 5,0"
         style="fill:none;stroke:#000000;stroke-width:3;stroke-linecap:butt;stroke-linejoin:miter;stroke-miterlimit:4;stroke-opacity:1;stroke-dasharray:none" />
      <path
         inkscape:connector-curvature="0"
         id="path3989-3"
         d="m 280,352.36219 5,0"
         style="fill:none;stroke:#000000;stroke-width:3;stroke-linecap:butt;stroke-linejoin:miter;stroke-miterlimit:4;stroke-opacity:1;stroke-dasharray:none" />
      <path
         inkscape:connector-curvature="0"
         id="path3989-1-3"
         d="m 290,352.36219 5,0"
         style="fill:none;stroke:#000000;stroke-width:3;stroke-linecap:butt;stroke-linejoin:miter;stroke-miterlimit:4;stroke-opacity:1;stroke-dasharray:none" />
      <path
         inkscape:connector-curvature="0"
         id="path3989-2-54"
         d="m 300,352.36219 5,0"
         style="fill:none;stroke:#000000;stroke-width:3;stroke-linecap:butt;stroke-linejoin:miter;stroke-miterlimit:4;stroke-opacity:1;stroke-dasharray:none" />
      <text
         sodipodi:linespacing="125%"
         id="text5067"
         y="316.36218"
         x="82"
         style="font-size:12px;font-style:normal;font-weight:normal;line-height:125%;letter-spacing:0px;word-spacing:0px;fill:#000000;fill-opacity:1;stroke:none;font-family:Sans"
         xml:space="preserve"><tspan
           y="316.36218"
           x="82"
           id="tspan5069"
           sodipodi:role="line">E<tspan
   id="tspan5071"
   style="font-size:12px;baseline-shift:sub">1</tspan></tspan></text>
      <text
         sodipodi:linespacing="125%"
         id="text5073"
         y="316.36218"
         x="242"
         style="font-size:12px;font-style:normal;font-weight:normal;line-height:125%;letter-spacing:0px;word-spacing:0px;fill:#000000;fill-opacity:1;stroke:none;font-family:Sans"
         xml:space="preserve"><tspan
           y="316.36218"
           x="242"
           id="tspan5075"
           sodipodi:role="line">E<tspan
   id="tspan5077"
   style="font-size:65.00091553%;baseline-shift:sub">e</tspan></tspan></text>
      <text
         sodipodi:linespacing="125%"
         id="text5079"
         y="335.36218"
         x="215"
         style="font-size:12px;font-style:normal;font-weight:normal;line-height:125%;letter-spacing:0px;word-spacing:0px;fill:#000000;fill-opacity:1;stroke:none;font-family:Sans"
         xml:space="preserve"><tspan
           y="335.36218"
           x="215"
           id="tspan5081"
           sodipodi:role="line">qe<tspan
   id="tspan5145"
   style="font-size:65.00091553%;baseline-shift:sub">1</tspan></tspan></text>
      <text
         sodipodi:linespacing="125%"
         id="text5085"
         y="335.36218"
         x="255"
         style="font-size:12px;font-style:normal;font-weight:normal;line-height:125%;letter-spacing:0px;word-spacing:0px;fill:#000000;fill-opacity:1;stroke:none;font-family:Sans"
         xml:space="preserve"><tspan
           y="335.36218"
           x="255"
           id="tspan5087"
           sodipodi:role="line">qe<tspan
   id="tspan5089"
   style="font-size:65.00091553%;baseline-shift:sub">p</tspan></tspan></text>
      <path
         inkscape:connector-curvature="0"
         id="path3855-4-4-7"
         d="m 215,338.64801 0,-16.28583 60.00001,0 0,18.00013"
         style="fill:none;stroke:#000000;stroke-width:0.3000001;stroke-linecap:butt;stroke-linejoin:miter;stroke-miterlimit:4;stroke-opacity:1;stroke-dasharray:none" />
      <path
         inkscape:connector-curvature="0"
         id="path3855-4-4-7-2"
         d="m 369.99999,338.64801 0,-16.28583 60.00001,0 0,18.00013"
         style="fill:none;stroke:#000000;stroke-width:0.3000001;stroke-linecap:butt;stroke-linejoin:miter;stroke-miterlimit:4;stroke-opacity:1;stroke-dasharray:none" />
      <path
         inkscape:connector-curvature="0"
         id="path3855-4-4-7-0"
         d="m 60,338.64801 0,-16.28583 60.00001,0 0,18.00013"
         style="fill:none;stroke:#000000;stroke-width:0.3000001;stroke-linecap:butt;stroke-linejoin:miter;stroke-miterlimit:4;stroke-opacity:1;stroke-dasharray:none" />
      <text
         sodipodi:linespacing="125%"
         id="text5149"
         y="422.36218"
         x="219"
         style="font-size:12px;font-style:normal;font-weight:normal;line-height:125%;letter-spacing:0px;word-spacing:0px;fill:#000000;fill-opacity:1;stroke:none;font-family:Sans"
         xml:space="preserve"><tspan
           y="422.36218"
           x="219"
           id="tspan5151"
           sodipodi:role="line">a<tspan
   id="tspan5153"
   style="font-size:65.00091553%;baseline-shift:sub">1</tspan></tspan></text>
      <text
         sodipodi:linespacing="125%"
         id="text5155"
         y="422.36218"
         x="253"
         style="font-size:12px;font-style:normal;font-weight:normal;line-height:125%;letter-spacing:0px;word-spacing:0px;fill:#000000;fill-opacity:1;stroke:none;font-family:Sans"
         xml:space="preserve"><tspan
           y="422.36218"
           x="253"
           id="tspan5157"
           sodipodi:role="line">a<tspan
   id="tspan5179"
   style="font-size:65.00091553%;baseline-shift:sub">nb_dof</tspan><tspan
   id="tspan5159"
   style="font-size:65.00091553%;baseline-shift:sub" /></tspan></text>
      <rect
         y="342.36218"
         x="310"
         height="20"
         width="120"
         id="rect3887-3-9"
         style="fill:none;stroke:#000000;stroke-width:1;stroke-miterlimit:4;stroke-opacity:1;stroke-dasharray:none;stroke-dashoffset:0" />
      <path
         inkscape:connector-curvature="0"
         id="path3891-6-4-8"
         d="m 350,342.36219 0,20"
         style="fill:none;stroke:#000000;stroke-width:1;stroke-linecap:butt;stroke-linejoin:miter;stroke-miterlimit:4;stroke-opacity:1;stroke-dasharray:none;stroke-dashoffset:0" />
      <path
         inkscape:connector-curvature="0"
         id="path3891-3-8-6"
         d="m 370,342.36219 0,20"
         style="fill:none;stroke:#000000;stroke-width:1;stroke-linecap:butt;stroke-linejoin:miter;stroke-miterlimit:4;stroke-opacity:1;stroke-dasharray:none" />
      <path
         inkscape:connector-curvature="0"
         id="path3891-0-0-8"
         d="m 390,342.36219 0,20"
         style="fill:none;stroke:#000000;stroke-width:1;stroke-linecap:butt;stroke-linejoin:miter;stroke-miterlimit:4;stroke-opacity:1;stroke-dasharray:none;stroke-dashoffset:0" />
      <path
         inkscape:connector-curvature="0"
         id="path3891-1-0-2"
         d="m 410,342.36219 0,20"
         style="fill:none;stroke:#000000;stroke-width:1;stroke-linecap:butt;stroke-linejoin:miter;stroke-miterlimit:4;stroke-opacity:1;stroke-dasharray:none;stroke-dashoffset:0" />
      <path
         inkscape:connector-curvature="0"
         id="path3891-7-8"
         d="m 330,342.36219 0,20"
         style="fill:none;stroke:#000000;stroke-width:1;stroke-linecap:butt;stroke-linejoin:miter;stroke-miterlimit:4;stroke-opacity:1;stroke-dasharray:none;stroke-dashoffset:0" />
      <rect
         y="342.36218"
         x="60"
         height="20"
         width="120"
         id="rect3887-3"
         style="fill:none;stroke:#000000;stroke-width:1;stroke-miterlimit:4;stroke-opacity:1;stroke-dasharray:none;stroke-dashoffset:0" />
      <path
         inkscape:connector-curvature="0"
         id="path3891-7"
         d="m 80,342.36219 0,20"
         style="fill:none;stroke:#000000;stroke-width:1;stroke-linecap:butt;stroke-linejoin:miter;stroke-miterlimit:4;stroke-opacity:1;stroke-dasharray:none;stroke-dashoffset:0" />
      <path
         inkscape:connector-curvature="0"
         id="path3891-6-4"
         d="m 100,342.36219 0,20"
         style="fill:none;stroke:#000000;stroke-width:1;stroke-linecap:butt;stroke-linejoin:miter;stroke-miterlimit:4;stroke-opacity:1;stroke-dasharray:none;stroke-dashoffset:0" />
      <path
         inkscape:connector-curvature="0"
         id="path3891-3-8"
         d="m 120,342.3622 0,20"
         style="fill:none;stroke:#000000;stroke-width:1;stroke-linecap:butt;stroke-linejoin:miter;stroke-miterlimit:4;stroke-opacity:1;stroke-dasharray:none" />
      <path
         inkscape:connector-curvature="0"
         id="path3891-0-0"
         d="m 140,342.36219 0,20"
         style="fill:none;stroke:#000000;stroke-width:1;stroke-linecap:butt;stroke-linejoin:miter;stroke-miterlimit:4;stroke-opacity:1;stroke-dasharray:none;stroke-dashoffset:0" />
      <path
         inkscape:connector-curvature="0"
         id="path3891-1-0"
         d="m 160,342.36219 0,20"
         style="fill:none;stroke:#000000;stroke-width:1;stroke-linecap:butt;stroke-linejoin:miter;stroke-miterlimit:4;stroke-opacity:1;stroke-dasharray:none;stroke-dashoffset:0" />
      <path
         inkscape:connector-curvature="0"
         id="path3891-6-5-8"
         d="m 242,342.36219 0,20"
         style="fill:none;stroke:#000000;stroke-width:0.30000001;stroke-linecap:butt;stroke-linejoin:miter;stroke-miterlimit:4;stroke-opacity:1;stroke-dasharray:0.9, 0.3;stroke-dashoffset:0" />
      <path
         inkscape:connector-curvature="0"
         id="path3891-6-1-3"
         d="m 248,342.36219 0,20"
         style="fill:none;stroke:#000000;stroke-width:0.30000001;stroke-linecap:butt;stroke-linejoin:miter;stroke-miterlimit:4;stroke-opacity:1;stroke-dasharray:0.9, 0.3;stroke-dashoffset:0" />
      <path
         inkscape:connector-curvature="0"
         id="path3891-7-4"
         d="m 235,342.36219 0,20"
         style="fill:none;stroke:#000000;stroke-width:1;stroke-linecap:butt;stroke-linejoin:miter;stroke-miterlimit:4;stroke-opacity:1;stroke-dasharray:none;stroke-dashoffset:0" />
      <rect
         y="342.36218"
         x="215"
         height="20"
         width="60"
         id="rect3887-1-4"
         style="fill:none;stroke:#000000;stroke-width:1;stroke-miterlimit:4;stroke-opacity:1;stroke-dasharray:none;stroke-dashoffset:0" />
      <path
         inkscape:connector-curvature="0"
         id="path3891-7-4-8"
         d="m 255,342.36219 0,20"
         style="fill:none;stroke:#000000;stroke-width:1;stroke-linecap:butt;stroke-linejoin:miter;stroke-miterlimit:4;stroke-opacity:1;stroke-dasharray:none;stroke-dashoffset:0" />
    </g>
  </g>
</svg>
