lc = 0.5;
h = 0.2;
Point(1) = {lc, 0, 0, h};
Point(2) = {-lc, 0, 0, h};
Point(3) = {0, lc, 0, h};
Point(4) = {0, -lc, 0, h};
Point(5) = {0, 0, lc, h};
Point(6) = {0, 0, -lc, h};
Line(1) = {4, 1};
Line(2) = {1, 3};
Line(3) = {3, 2};
Line(4) = {2, 4};
Line(5) = {4, 5};
Line(6) = {1, 5};
Line(7) = {3, 5};
Line(8) = {2, 5};
Line(9) = {6, 2};
Line(10) = {6, 4};
Line(11) = {6, 1};
Line(12) = {6, 3};
Line Loop(13) = {1, 6, -5};
Plane Surface(14) = {13};
Line Loop(15) = {2, 7, -6};
Plane Surface(16) = {15};
Line Loop(17) = {3, 8, -7};
Plane Surface(18) = {17};
Line Loop(19) = {4, 5, -8};
Plane Surface(20) = {19};
Line Loop(21) = {11, -1, -10};
Plane Surface(22) = {21};
Line Loop(23) = {10, -4, -9};
Plane Surface(24) = {23};
Line Loop(25) = {12, -2, -11};
Plane Surface(26) = {25};
Line Loop(27) = {9, -3, -12};
Plane Surface(28) = {27};
Surface Loop(29) = {18, 28, 24, 22, 26, 16, 14, 20};
Volume(30) = {29};
Physical Volume(31) = {30};

// Transfinite Line {1, 2, 3, 4, 5, 6, 7, 8, 9, 10, 11, 12} = 4;
