h = 10;
Point(1) = {0, 0, 0, h};
Point(2) = {0, 10, 0, h};
Point(3) = {10, 0, 0, h};
Point(4) = {10, 10, 0, h};
Point(5) = {0, 0, 40, h};
Point(6) = {0, 10, 40, h};
Point(7) = {10, 0, 40, h};
Point(8) = {10, 10, 40, h};
Line(9) = {1, 3};
Line(10) = {2, 4};
Line(11) = {1, 2};
Line(12) = {3, 4};
Line(13) = {5, 7};
Line(14) = {6, 8};
Line(15) = {5, 6};
Line(16) = {7, 8};
Line(17) = {1, 5};
Line(18) = {2, 6};
Line(19) = {3, 7};
Line(20) = {4, 8};
Line Loop(22) = {11, 10, -12, -9};
Plane Surface(22) = {22};
Line Loop(24) = {19, 16, -20, -12};
Plane Surface(24) = {24};
Line Loop(26) = {17, 13, -19, -9};
Plane Surface(26) = {26};
Line Loop(28) = {18, 14, -20, -10};
Plane Surface(28) = {28};
Line Loop(30) = {14, -16, -13, 15};
Plane Surface(30) = {30};
Line Loop(31) = {18, -15, -17, 11};
Plane Surface(32) = {31};
Surface Loop(33) = {32, 28, 30, 24, 26, 22};
Volume(34) = {33};
