lc = 1;
h = 2;

Point(1) = {lc, lc, lc, h};
Point(2) = {-lc, lc, lc, h};
Point(3) = {-lc, -lc, lc, h};
Point(4) = {lc, -lc, lc, h};
Point(5) = {lc, lc, -lc, h};
Point(6) = {-lc, lc, -lc, h};
Point(7) = {-lc, -lc, -lc, h};
Point(8) = {lc, -lc, -lc, h};
Line(1) = {3, 4};
Line(2) = {4, 1};
Line(3) = {1, 2};
Line(4) = {2, 3};
Line(5) = {4, 8};
Line(6) = {8, 5};
Line(7) = {5, 1};
Line(8) = {6, 2};
Line(9) = {7, 3};
Line(10) = {8, 7};
Line(11) = {7, 6};
Line(12) = {6, 5};
Line Loop(13) = {7, 3, -8, 12};
Plane Surface(14) = {13};
Line Loop(15) = {10, 11, 12, -6};
Plane Surface(16) = {15};
Line Loop(17) = {5, 6, 7, -2};
Plane Surface(18) = {17};
Line Loop(19) = {9, -4, -8, -11};
Plane Surface(20) = {19};
Line Loop(21) = {5, 10, 9, 1};
Plane Surface(22) = {21};
Line Loop(23) = {1, 2, 3, 4};
Plane Surface(24) = {23};
Surface Loop(25) = {18, 22, 16, 20, 24, 14};
Volume(26) = {25};
Physical Volume(27) = {26};

Transfinite Line {1, 2, 3, 4, 5, 6, 7, 8, 9, 10, 11, 12} = 2;